<svg width="82" height="79" viewBox="0 0 82 79" fill="none" xmlns="http://www.w3.org/2000/svg">
<path d="M25.7593 63.9141C12.0423 63.9141 0.922482 52.7942 0.922482 39.0772C0.922482 25.3602 12.0423 14.2404 25.7593 14.2404C39.4764 14.2404 50.5962 25.3602 50.5962 39.0772C50.5962 52.7942 39.4764 63.9141 25.7593 63.9141Z" fill="#49C5B1"/>
<path d="M25.1383 65.3824C28.9764 65.3824 32.5943 64.4389 35.7927 62.7675C36.3171 62.4925 36.9358 62.8807 36.9358 63.4846V77.7667C36.9358 78.5754 36.0549 79.0553 35.4047 78.597C32.2482 76.3865 29.097 74.1759 25.9405 71.96C25.6154 71.7282 25.1855 71.7282 24.8551 71.9492C21.5204 74.1813 18.1909 76.4188 14.8561 78.6509C14.2059 79.0876 13.3408 78.6078 13.3408 77.8044V63.4792C13.3408 62.8753 13.9595 62.4871 14.4838 62.7621C17.6823 64.4389 21.3002 65.3824 25.1383 65.3824Z" fill="#49C5B1"/>
<path d="M25.7597 56.4629C16.1578 56.4629 8.37391 48.6791 8.37391 39.0771C8.37391 29.4752 16.1578 21.6913 25.7597 21.6913C35.3616 21.6913 43.1455 29.4752 43.1455 39.0771C43.1455 48.6791 35.3616 56.4629 25.7597 56.4629Z" fill="#49C5B1"/>
<path fill-rule="evenodd" clip-rule="evenodd" d="M25.7596 22.641C34.837 22.641 42.1957 29.9997 42.1957 39.0771C42.1957 48.1545 34.837 55.5133 25.7596 55.5133C16.6821 55.5133 9.32341 48.1545 9.32341 39.0771C9.32341 29.9997 16.6821 22.641 25.7596 22.641ZM44.3872 39.0771C44.3872 28.7893 36.0473 20.4495 25.7596 20.4495C15.4718 20.4495 7.13192 28.7893 7.13192 39.0771C7.13192 49.3649 15.4718 57.7047 25.7596 57.7047C36.0473 57.7047 44.3872 49.3649 44.3872 39.0771Z" fill="#FCFCFC"/>
<path fill-rule="evenodd" clip-rule="evenodd" d="M25.2766 28.1766C31.5622 28.1766 36.6602 33.2745 36.6602 39.5601C36.6602 39.9792 36.9999 40.319 37.4191 40.319C37.8382 40.319 38.178 39.9792 38.178 39.5601C38.178 32.4362 32.4005 26.6588 25.2766 26.6588C24.8575 26.6588 24.5177 26.9985 24.5177 27.4177C24.5177 27.8368 24.8575 28.1766 25.2766 28.1766Z" fill="#FCFCFC"/>
<path fill-rule="evenodd" clip-rule="evenodd" d="M76.2504 3.29415C77.358 3.29415 78.2561 4.20381 78.2561 5.32554V46.8318C78.2561 47.9536 77.358 48.8632 76.2504 48.8632H18.4653C17.3578 48.8632 16.4596 47.9536 16.4596 46.8318V5.32554C16.4596 4.2038 17.3578 3.29415 18.4653 3.29415H76.2504ZM81.5085 5.32554C81.5085 2.3845 79.1542 0 76.2504 0H18.4653C15.5615 0 13.2072 2.3845 13.2072 5.32554V46.8318C13.2072 49.7729 15.5615 52.1574 18.4653 52.1574H76.2504C79.1542 52.1574 81.5085 49.7729 81.5085 46.8318V5.32554Z" fill="#016F5D"/>
<path fill-rule="evenodd" clip-rule="evenodd" d="M62.8811 14.2812C62.8811 13.2524 62.1365 12.4185 61.2179 12.4185H33.4982C32.5797 12.4185 31.835 13.2524 31.835 14.2812C31.835 15.31 32.5797 16.144 33.4982 16.144H61.2179C62.1365 16.144 62.8811 15.31 62.8811 14.2812Z" fill="#016F5D"/>
<path fill-rule="evenodd" clip-rule="evenodd" d="M76.541 26.6996C76.541 25.6708 75.7944 24.8368 74.8734 24.8368H19.842C18.921 24.8368 18.1744 25.6708 18.1744 26.6996C18.1744 27.7283 18.921 28.5623 19.842 28.5623H74.8734C75.7944 28.5623 76.541 27.7283 76.541 26.6996Z" fill="#016F5D"/>
<path fill-rule="evenodd" clip-rule="evenodd" d="M76.541 37.8762C76.541 36.8474 75.8033 36.0134 74.8932 36.0134H21.0641C20.154 36.0134 19.4163 36.8474 19.4163 37.8762C19.4163 38.905 20.154 39.739 21.0641 39.739H74.8932C75.8033 39.739 76.541 38.905 76.541 37.8762Z" fill="#016F5D"/>
</svg>
