<svg width="92" height="80" viewBox="0 0 92 80" fill="none" xmlns="http://www.w3.org/2000/svg">
<circle cx="47.1289" cy="40" r="40" fill="#49C5B1"/>
<g clip-path="url(#clip0)">
<path d="M23.9477 27.0044C23.9477 26.1837 23.59 25.4401 22.9654 24.9636C22.3464 24.4899 21.543 24.3411 20.7616 24.556L16.7831 25.6466L16.7804 37.7429L7.1699 40.3814L7.17265 31.6067C7.17265 30.7859 6.81497 30.0423 6.19042 29.5658C5.57136 29.0921 4.76797 28.9434 3.98658 29.1582L0.0108738 30.2488L0.00537109 62.1311L7.16715 60.1674L7.1699 47.8948L16.7804 45.2591L16.7776 57.5317L23.9422 55.5652L23.9477 27.0044Z" fill="#606161"/>
<path d="M64.4066 13.7624C63.6857 13.038 62.6457 12.7736 61.6194 13.0546L58.9011 13.8009L53.7973 34.2011L48.2809 16.6267L42.2884 18.271L36.7665 38.8611L32.4496 23.9501C32.0149 22.4463 30.4741 21.598 28.9443 22.0194L24.1157 23.3441L33.6519 52.8248L39.7132 51.1613L45.3067 31.1605L50.8892 48.0959L56.9504 46.4324L65.1329 16.6956C65.4273 15.6104 65.1577 14.5143 64.4066 13.7624Z" fill="#F4F4F4"/>
<path d="M84.3786 27.6517C87.9279 24.9498 89.8759 21.0003 89.8759 16.4615V16.3733C89.8759 13.3272 89.0064 10.9641 87.3611 9.54023C85.4131 7.85468 82.5132 7.47735 78.9695 8.44958L66.2472 11.9391L66.2417 43.8214L73.4035 41.8549V32.0721L77.1398 31.0476L82.8847 39.255L91.0892 37.0048L84.3786 27.6517ZM73.1559 24.1539L73.1118 17.2492L77.4727 16.0538C79.3161 15.5498 80.7881 15.5195 81.0908 15.7839C81.5392 16.1723 81.7786 16.8746 81.7786 17.8138V17.8468C81.7786 19.9648 81.2696 21.5649 78.7961 22.4959L78.7053 22.5289L78.6476 22.573C78.2486 22.7905 75.6816 23.5066 73.1559 24.1539Z" fill="#606161"/>
<path d="M0.00550271 65.6868L0.85292 65.4499L0.850169 68.1214L3.91518 67.2704L3.91793 64.5989L4.7736 64.3593L4.7681 70.7517L3.91243 70.9913L3.91518 68.0664L0.850169 68.9174L0.847417 71.8423L0 72.0792L0.00550271 65.6868Z" fill="#606161"/>
<path d="M13.3938 65.1855C13.3938 65.6785 13.3113 66.155 13.149 66.6122C12.9866 67.0694 12.761 67.4852 12.4749 67.8626C12.1887 68.2399 11.8503 68.5676 11.4541 68.843C11.0607 69.1185 10.6315 69.3195 10.1692 69.449C9.70701 69.5784 9.28055 69.6115 8.88986 69.5564C8.49917 69.4985 8.16075 69.3608 7.87736 69.1432C7.59122 68.9257 7.37111 68.6337 7.21154 68.2647C7.05196 67.8956 6.97217 67.466 6.97217 66.973C6.97217 66.4745 7.05196 65.9952 7.21429 65.538C7.37387 65.0836 7.59673 64.6677 7.88287 64.2959C8.16901 63.9241 8.50742 63.6046 8.89812 63.3319C9.28881 63.062 9.71527 62.861 10.1775 62.7315C10.6397 62.6021 11.0689 62.5663 11.4624 62.6186C11.8558 62.6709 12.1942 62.8031 12.4804 63.018C12.7665 63.23 12.9894 63.5192 13.1517 63.8883C13.3113 64.2518 13.3938 64.6842 13.3938 65.1855ZM12.4776 65.4389C12.4776 65.0891 12.4254 64.7751 12.3153 64.4942C12.208 64.216 12.0539 63.9847 11.8531 63.8057C11.6522 63.6266 11.4129 63.5082 11.1295 63.4504C10.8461 63.3925 10.5297 63.4146 10.1747 63.5137C9.82807 63.6101 9.51167 63.7644 9.22828 63.9792C8.94489 64.194 8.70552 64.4446 8.50742 64.7338C8.30933 65.023 8.158 65.337 8.04795 65.6785C7.94064 66.0173 7.88562 66.3643 7.88562 66.7113C7.88562 67.0666 7.93789 67.3861 8.04795 67.6698C8.15525 67.9534 8.30933 68.182 8.51018 68.3583C8.70827 68.5346 8.95039 68.6503 9.22828 68.7053C9.50892 68.7604 9.82257 68.7384 10.1692 68.642C10.5187 68.5456 10.8351 68.3914 11.1212 68.1793C11.4074 67.9672 11.6495 67.7193 11.8503 67.4302C12.0512 67.1437 12.2052 66.827 12.3125 66.4855C12.4226 66.144 12.4776 65.7942 12.4776 65.4389Z" fill="#606161"/>
<path d="M17.1821 66.0613L17.1986 66.0558L18.6238 60.5695L19.5565 60.3106L20.9652 65.0092L20.9817 65.0037L22.3216 59.5394L23.2213 59.2888L21.4357 66.177L20.5553 66.4221L19.0861 61.696L19.0695 61.7015L17.5921 67.2484L16.7116 67.4935L14.937 61.5968L15.8532 61.3434L17.1821 66.0613Z" fill="#606161"/>
<path d="M29.6484 62.6159L29.6649 62.6104L31.0901 57.124L32.0228 56.8652L33.4315 61.5638L33.448 61.5583L34.788 56.094L35.6876 55.8434L33.902 62.7288L33.0216 62.9739L31.5524 58.2477L31.5359 58.2533L30.0584 63.8002L29.1779 64.0453L27.4033 58.1486L28.3195 57.8952L29.6484 62.6159Z" fill="#606161"/>
<path d="M43.554 56.912C43.554 57.405 43.4714 57.8814 43.3091 58.3386C43.1468 58.7958 42.9212 59.2117 42.635 59.589C42.3489 59.9664 42.0105 60.2941 41.6143 60.5695C41.2208 60.8449 40.7916 61.046 40.3294 61.1754C39.8672 61.3049 39.4407 61.3407 39.05 61.2829C38.6593 61.225 38.3209 61.0873 38.0375 60.8697C37.7514 60.6521 37.5313 60.3575 37.3717 59.9911C37.2121 59.6221 37.1323 59.1924 37.1323 58.6994C37.1323 58.2009 37.2121 57.7217 37.3744 57.2645C37.534 56.8073 37.7569 56.3942 38.043 56.0224C38.3292 55.6506 38.6676 55.3311 39.0583 55.0584C39.449 54.7885 39.8754 54.5875 40.3376 54.458C40.7999 54.3286 41.2291 54.2928 41.6225 54.3451C42.016 54.3974 42.3571 54.5324 42.6405 54.7444C42.9267 54.9565 43.1495 55.2485 43.3119 55.6148C43.4714 55.9811 43.554 56.4135 43.554 56.912ZM42.6378 57.1681C42.6378 56.8183 42.5855 56.5044 42.4755 56.2262C42.3681 55.948 42.2141 55.7167 42.0132 55.5376C41.8124 55.3586 41.573 55.2402 41.2896 55.1824C41.0062 55.1245 40.6898 55.1466 40.3349 55.2457C39.9882 55.3421 39.6718 55.4963 39.3884 55.7112C39.105 55.926 38.8657 56.1766 38.6676 56.4658C38.4695 56.755 38.3182 57.069 38.2081 57.4077C38.1008 57.7492 38.0458 58.0935 38.0458 58.4405C38.0458 58.7958 38.098 59.1153 38.2081 59.399C38.3154 59.6827 38.4695 59.9113 38.6703 60.0875C38.8684 60.2638 39.1105 60.3795 39.3884 60.4318C39.6691 60.4869 39.9827 60.4649 40.3294 60.3685C40.6788 60.2721 40.9952 60.1178 41.2814 59.9058C41.5675 59.6937 41.8096 59.4458 42.0105 59.1566C42.2113 58.8702 42.3654 58.5535 42.4727 58.212C42.5828 57.8732 42.6378 57.5234 42.6378 57.1681Z" fill="#606161"/>
<path d="M48.8778 57.1296L48.8943 57.124L50.6881 51.7148L52.006 51.3485L52.0005 57.741L51.1531 57.9778L51.1586 52.632L51.1421 52.6375L49.1254 58.5424L48.5861 58.6912L46.5859 53.8879L46.5694 53.8934L46.5639 59.2392L45.7412 59.4678L45.7467 53.0754L47.0646 52.7091L48.8778 57.1296Z" fill="#606161"/>
<path d="M55.3572 56.0086L58.524 55.1273V55.9232L54.5098 57.0387L54.5153 50.6462L58.4029 49.5666V50.3515L55.3627 51.1971L55.3599 53.1112L58.2186 52.3153V53.0837L55.3599 53.8796L55.3572 56.0086Z" fill="#606161"/>
<path d="M64.9651 52.8744L64.9816 52.8689L64.9843 47.7571L65.8317 47.523L65.8262 53.9154L64.756 54.2129L61.5589 49.8861L61.5424 49.8916L61.5369 55.1108L60.6895 55.3476L60.695 48.9552L61.7982 48.6467L64.9651 52.8744Z" fill="#606161"/>
<path d="M72.3577 52.117L71.5103 52.3538L71.5158 45.9614L73.4582 45.4216C73.7499 45.3417 74.025 45.2949 74.2891 45.2839C74.5505 45.2728 74.7816 45.3114 74.977 45.394C75.1751 45.4794 75.3291 45.6171 75.4419 45.8099C75.5548 46.0027 75.6125 46.2643 75.6125 46.5893C75.6125 47.0575 75.475 47.4762 75.1998 47.8397C74.9247 48.2033 74.5698 48.487 74.1378 48.6853L75.8299 51.1475L74.8036 51.4339L73.2656 49.0185L72.3577 49.2691V52.117ZM72.3604 48.5255L73.3372 48.2556C73.538 48.2005 73.7223 48.1317 73.8929 48.0463C74.0635 47.9637 74.2148 47.8618 74.3441 47.7461C74.4735 47.6304 74.5725 47.4955 74.6496 47.3467C74.7238 47.198 74.7624 47.0245 74.7624 46.8345C74.7624 46.6417 74.7238 46.4902 74.6523 46.3828C74.578 46.2754 74.479 46.1982 74.3579 46.1542C74.2341 46.1101 74.091 46.0936 73.9259 46.1074C73.7609 46.1211 73.5875 46.1514 73.4032 46.201L72.3659 46.4902L72.3604 48.5255Z" fill="#606161"/>
<path d="M78.6502 50.3873L77.8027 50.6214L77.8082 44.229L78.6557 43.9949L78.6502 50.3873Z" fill="#606161"/>
<path d="M84.1776 43.725C84.0565 43.5845 83.8942 43.4854 83.6906 43.4303C83.4843 43.3752 83.2531 43.3835 82.9973 43.4551C82.8597 43.4936 82.7221 43.5515 82.5818 43.6286C82.4415 43.7057 82.3149 43.8049 82.1994 43.9261C82.0866 44.0445 81.993 44.1794 81.9215 44.3282C81.85 44.4769 81.8142 44.6421 81.8142 44.8212C81.8142 44.9974 81.8472 45.1324 81.9105 45.2315C81.9765 45.3307 82.0646 45.405 82.1746 45.4574C82.2874 45.5069 82.4167 45.54 82.5681 45.5538C82.7194 45.5675 82.8817 45.5841 83.0523 45.5951C83.2586 45.6033 83.465 45.6226 83.6769 45.6474C83.8887 45.6722 84.0786 45.7328 84.2491 45.8237C84.4197 45.9146 84.56 46.0495 84.6673 46.2258C84.7746 46.4021 84.8297 46.6527 84.8297 46.9694C84.8297 47.2999 84.7691 47.6029 84.6536 47.881C84.5353 48.1565 84.3812 48.4016 84.1859 48.6164C83.9905 48.8312 83.7677 49.0102 83.5118 49.159C83.2587 49.3077 82.9973 49.4206 82.7276 49.495C82.3452 49.6024 81.9765 49.6244 81.6188 49.5666C81.2612 49.5088 80.9668 49.36 80.7329 49.1177L81.3932 48.3492C81.5363 48.531 81.7262 48.6577 81.9655 48.7293C82.2049 48.8009 82.4635 48.7982 82.7441 48.7211C82.8872 48.6825 83.0303 48.6219 83.1734 48.5393C83.3164 48.4567 83.4457 48.3548 83.5641 48.2336C83.6796 48.1096 83.7759 47.9719 83.8502 47.8149C83.9245 47.658 83.9602 47.4844 83.9602 47.2916C83.9602 47.0989 83.9217 46.9501 83.8447 46.84C83.7676 46.7325 83.6631 46.6499 83.531 46.5976C83.399 46.5425 83.2476 46.5095 83.0743 46.4929C82.901 46.4792 82.7166 46.4654 82.5213 46.4516C82.3259 46.4461 82.1361 46.4241 81.949 46.391C81.7619 46.3552 81.5913 46.2919 81.4455 46.1982C81.2969 46.1046 81.1786 45.9696 81.0851 45.7961C80.9943 45.6226 80.9475 45.3885 80.9475 45.0938C80.9475 44.7743 81.0108 44.4851 81.1319 44.2207C81.2529 43.9563 81.4152 43.725 81.6106 43.5184C81.8059 43.3119 82.0288 43.1411 82.2792 43.0034C82.5268 42.8657 82.7772 42.761 83.0275 42.6894C83.3825 42.5903 83.7126 42.5655 84.0208 42.6123C84.3289 42.6591 84.5765 42.7693 84.7636 42.9373L84.1776 43.725Z" fill="#606161"/>
<path d="M87.9143 47.0438L91.0811 46.1652V46.9612L87.0669 48.0766L87.0724 41.6842L90.9601 40.6045V41.3895L87.9198 42.235L87.9171 44.1491L90.7757 43.3559V44.1244L87.9171 44.9176L87.9143 47.0438Z" fill="#606161"/>
</g>
<defs>
<clipPath id="clip0">
<rect width="91.0891" height="64.1584" fill="white" transform="translate(0 7.92078)"/>
</clipPath>
</defs>
</svg>
