<svg width="80" height="76" viewBox="0 0 80 76" fill="none" xmlns="http://www.w3.org/2000/svg">
<path d="M8.3969 19.8989V55.0363C8.3969 57.0904 10.06 58.7536 12.1142 58.7536H40.0196L49.8334 68.5673C50.2527 68.9867 50.9689 68.6898 50.9689 68.0962V58.7536H56.3728C58.427 58.7536 60.0901 57.0904 60.0901 55.0363V19.8989C60.0901 17.8447 58.427 16.1816 56.3728 16.1816H12.1142C10.06 16.1816 8.3969 17.8447 8.3969 19.8989Z" fill="#49C5B1"/>
<path d="M4.20392 23.4796H5.15091C5.93299 23.4796 6.56903 24.1156 6.56903 24.8977V56.8596C6.56903 58.9138 8.23214 60.5769 10.2863 60.5769H37.8149C38.0551 60.5769 38.286 60.6711 38.4603 60.8455L42.1116 64.4968C42.6864 65.0716 42.2812 66.0515 41.4662 66.0515H20.5571L10.8658 75.7428C10.4041 76.2045 9.61258 75.8794 9.61258 75.2246V66.0515H4.20863C2.15448 66.0515 0.49136 64.3884 0.49136 62.3342V27.1968C0.49136 25.1427 2.15447 23.4796 4.20392 23.4796Z" fill="#49C5B1"/>
<path d="M49.7487 39.8987C47.7347 39.8987 46.1021 38.266 46.1021 36.2521C46.1021 34.2381 47.7347 32.6055 49.7487 32.6055C51.7626 32.6055 53.3953 34.2381 53.3953 36.2521C53.3953 38.266 51.7626 39.8987 49.7487 39.8987Z" fill="white"/>
<path d="M35.1532 39.8987C33.1392 39.8987 31.5066 38.266 31.5066 36.2521C31.5066 34.2381 33.1392 32.6055 35.1532 32.6055C37.1672 32.6055 38.7998 34.2381 38.7998 36.2521C38.7998 38.266 37.1672 39.8987 35.1532 39.8987Z" fill="white"/>
<path d="M20.5573 39.8987C18.5433 39.8987 16.9106 38.266 16.9106 36.2521C16.9106 34.2381 18.5433 32.6055 20.5573 32.6055C22.5712 32.6055 24.2039 34.2381 24.2039 36.2521C24.2039 38.266 22.5712 39.8987 20.5573 39.8987Z" fill="white"/>
<path fill-rule="evenodd" clip-rule="evenodd" d="M61.9091 8.90078C65.2588 8.90078 67.9743 11.6163 67.9743 14.966C67.9743 18.3157 65.2588 21.0312 61.9091 21.0312C58.5593 21.0312 55.8439 18.3157 55.8439 14.966C55.8439 11.6163 58.5593 8.90078 61.9091 8.90078ZM70.4397 14.966C70.4397 10.2547 66.6204 6.43536 61.9091 6.43536C57.1977 6.43536 53.3784 10.2547 53.3784 14.966C53.3784 19.6773 57.1977 23.4966 61.9091 23.4966C66.6204 23.4966 70.4397 19.6773 70.4397 14.966Z" fill="#016F5D"/>
<path fill-rule="evenodd" clip-rule="evenodd" d="M79.0281 34.7096C77.1214 27.1993 70.322 21.639 62.2151 21.639C54.1082 21.639 47.3088 27.1993 45.4021 34.7096L45.4013 34.7126C44.9696 36.4307 46.2724 38.0925 48.0386 38.0925H76.3916C78.1577 38.0925 79.4605 36.4307 79.0288 34.7126L79.0281 34.7096ZM76.638 35.3142C76.6768 35.4709 76.5569 35.6271 76.3916 35.6271H48.0386C47.8733 35.6271 47.7534 35.4708 47.7922 35.3141C49.4292 28.8704 55.2652 24.1045 62.2151 24.1045C69.165 24.1045 75.001 28.8705 76.638 35.3142Z" fill="#016F5D"/>
<path fill-rule="evenodd" clip-rule="evenodd" d="M35.153 28.9713C38.5027 28.9713 41.2182 31.6868 41.2182 35.0365C41.2182 38.3862 38.5027 41.1017 35.153 41.1017C31.8032 41.1017 29.0878 38.3862 29.0878 35.0365C29.0878 31.6868 31.8032 28.9713 35.153 28.9713ZM43.6836 35.0365C43.6836 30.3251 39.8643 26.5059 35.153 26.5059C30.4416 26.5059 26.6223 30.3252 26.6223 35.0365C26.6223 39.7478 30.4416 43.5671 35.153 43.5671C39.8643 43.5671 43.6836 39.7478 43.6836 35.0365Z" fill="#016F5D"/>
<path fill-rule="evenodd" clip-rule="evenodd" d="M76.5264 6.27356C76.5264 3.33979 74.1455 0.965515 71.2183 0.965515H23.4167C20.4867 0.965515 18.1073 3.33845 18.1181 6.27128V30.3581C18.1181 33.2919 20.4989 35.6661 23.4261 35.6661H29.0333L29.1258 34.5339C29.3802 31.4225 31.9886 28.976 35.1622 28.976C38.3344 28.976 40.9401 31.4215 41.1986 34.5354L41.2925 35.6661H47.7026L47.963 34.7814C49.7779 28.6143 55.4705 24.1139 62.2196 24.1139C67.194 24.1139 71.5877 26.5599 74.2931 30.3196L76.5264 33.4232V6.27356ZM71.2183 3.43093C72.7858 3.43093 74.061 4.70326 74.061 6.27356V26.3362C70.9648 23.4321 66.8049 21.6484 62.2196 21.6484C54.6716 21.6484 48.2651 26.4735 45.8844 33.2007H43.4851C42.6426 29.3756 39.239 26.5106 35.1622 26.5106C31.0869 26.5106 27.678 29.3743 26.8382 33.2007H23.4261C21.8587 33.2007 20.5835 31.9284 20.5835 30.3581V6.26885L20.5835 6.26368C20.577 4.70312 21.8436 3.43093 23.4167 3.43093H71.2183Z" fill="#016F5D"/>
<path fill-rule="evenodd" clip-rule="evenodd" d="M52.1256 54.2523C50.0416 47.0115 43.3695 41.7047 35.4547 41.7047C27.5401 41.7047 20.8726 47.0067 18.7885 54.2476L18.788 54.2493C18.3543 55.7645 19.1318 57.3053 20.4789 57.9011V58.1629H49.2025C51.2605 58.1629 52.6797 56.1876 52.1261 54.254L52.1256 54.2523ZM22.9443 55.6974V55.6927H21.7116C21.3387 55.6927 21.043 55.3314 21.1581 54.9283C22.9472 48.7142 28.6703 44.1701 35.4547 44.1701C42.2391 44.1701 47.9671 48.7189 49.7561 54.9333C49.871 55.3363 49.5754 55.6974 49.2025 55.6974H22.9443Z" fill="#016F5D"/>
<path fill-rule="evenodd" clip-rule="evenodd" d="M50.3735 11.3194C50.3735 10.6386 49.8216 10.0867 49.1408 10.0867H25.4238C24.743 10.0867 24.1911 10.6386 24.1911 11.3194C24.1911 12.0002 24.743 12.5521 25.4238 12.5521H49.1408C49.8216 12.5521 50.3735 12.0002 50.3735 11.3194Z" fill="#016F5D"/>
<path fill-rule="evenodd" clip-rule="evenodd" d="M50.3735 17.4019C50.3735 16.7211 49.8216 16.1692 49.1408 16.1692H25.4238C24.743 16.1692 24.1911 16.7211 24.1911 17.4019C24.1911 18.0827 24.743 18.6346 25.4238 18.6346H49.1408C49.8216 18.6346 50.3735 18.0827 50.3735 17.4019Z" fill="#016F5D"/>
<path fill-rule="evenodd" clip-rule="evenodd" d="M50.3735 22.8717C50.3735 22.1909 49.8216 21.639 49.1408 21.639H25.4238C24.743 21.639 24.1911 22.1909 24.1911 22.8717C24.1911 23.5526 24.743 24.1045 25.4238 24.1045H49.1408C49.8216 24.1045 50.3735 23.5526 50.3735 22.8717Z" fill="#016F5D"/>
</svg>
