<svg width="28" height="27" viewBox="0 0 28 27" fill="none" xmlns="http://www.w3.org/2000/svg">
<path d="M6.2675 27H0.4625V8.97348H6.2675V27ZM3.36188 6.5145C1.50563 6.5145 0 5.03188 0 3.24188C1.32862e-08 2.38208 0.354197 1.5575 0.98467 0.949525C1.61514 0.341554 2.47025 0 3.36188 0C4.2535 0 5.10861 0.341554 5.73908 0.949525C6.36955 1.5575 6.72375 2.38208 6.72375 3.24188C6.72375 5.03188 5.2175 6.5145 3.36188 6.5145ZM27.9937 27H22.2013V18.2248C22.2013 16.1335 22.1575 13.4515 19.1831 13.4515C16.165 13.4515 15.7025 15.7236 15.7025 18.0741V27H9.90375V8.97348H15.4712V11.4325H15.5525C16.3275 10.0161 18.2206 8.52146 21.045 8.52146C26.92 8.52146 28 12.2521 28 17.0978V27H27.9937Z" fill="white"/>
</svg>
