<svg width="21" height="18" viewBox="0 0 21 18" fill="none" xmlns="http://www.w3.org/2000/svg">
<path d="M10 15C9.99943 13.819 10.2979 12.6571 10.8676 11.6225C11.4373 10.588 12.2596 9.71453 13.2579 9.08357C14.2563 8.45262 15.3981 8.08471 16.577 8.01414C17.7559 7.94357 18.9335 8.17265 20 8.68V2C20 0.9 19.1 0 18 0H2C0.9 0 0 0.9 0 2V14C0 15.1 0.9 16 2 16H10.08C10.03 15.67 10 15.34 10 15ZM2 2L10 7L18 2V4L10 9L2 4V2ZM15.34 18L11.8 14.46L13.21 13.05L15.33 15.17L19.57 10.93L21 12.34L15.34 18Z" fill="#49C5B1"/>
</svg>
